<svg xmlns="http://www.w3.org/2000/svg" viewBox="0 0 877 261"><defs><style>.a{fill:#0389d3;}.b{fill:#010101;}.c{fill:#fefefe;}.d{fill:#08d;}</style></defs><title>VuLogoWithText</title><path class="a" d="M429.18,127.88c-0.4.2-.77,0.15-1.2,0.38-3.19,1.66-6.45,3.18-9.61,4.89-2.42,1.31-4.81,2.69-7.2,4.06s-4.41,2.74-6.6,4.13c-1.73,1.1-3.37,2.31-5,3.54-2.38,1.81-4.64,3.75-6.86,5.75a11,11,0,0,1-1.68,1.29,3.79,3.79,0,0,1-1.46.48,16.24,16.24,0,0,1-2,0l-1.22-1.22c-0.26-1.1-.24-2.3-0.94-3.23a5.84,5.84,0,0,0-3.49,1.67,48.34,48.34,0,0,0-5.76,4.9A24.55,24.55,0,0,1,374,156.4c-0.69.57-1.12,1.44-2.07,1.71a0.92,0.92,0,0,0-.26.25c-1.87,1.74-3.69,3.53-5.61,5.22l-7,6.24c-1.08,1-2.13,2-3.36,3.05,0-.76,0-1.39,0-2s0-1.23,0-2c2-1.77,4-3.8,6.28-5.49a7,7,0,0,0,.53-0.52c1.82-1.7,3.63-3.41,5.47-5.09,0.66-.6,1.41-1.1,2.1-1.63v-3.75l-8,7v-4.31l2.33-1.9c0.79-.64,1.29-1.62,2.33-2a1.49,1.49,0,0,0,.4-0.38q2.86-2.68,5.73-5.35a7.88,7.88,0,0,1,1-.64V134.29c2.29,0.21,4.45-.55,6.7-0.39a11.1,11.1,0,0,0,2.65-.47c-2.45-.91-4.9-1.47-7.25-2.56,3.29-2.34,6-2.28,9.61.42,0.43-1.09-.1-2.08-0.32-3.15l-1.78-1.78a9.86,9.86,0,0,0-5.11-.92l-2.34-1.4a20.63,20.63,0,0,0-3.91.06,15.14,15.14,0,0,0-3.18,1.44,11.42,11.42,0,0,0-6.46-4.18l2.75,6.22c-1.65.1-2.9-.86-4.32-0.66l0.06-.05-0.26-.3-0.12.12a2.07,2.07,0,0,0,.32.24c0.6,1.4,1.75,2.44,2.55,3.73a2.72,2.72,0,0,1,.42,1.46,48.78,48.78,0,0,0-6.32,14.24,62.17,62.17,0,0,0-2.08,16c-0.9-2.37-1.76-4.75-2.71-7.1-0.81-2-1.33-4.13-2-6.2-0.52-1.64-.8-3.36-1.35-5a46.52,46.52,0,0,1-1.37-6.06c-0.34-1.77-1-3.53-.82-5.41-0.55-.94-0.07-2.09-0.45-3s0-1.94-.32-2.83c-0.53-1.66-.09-3.38-0.38-5-0.69-3.95-.27-7.91-0.28-11.86,0-2,.4-3.95.31-5.94,0.65-1,.25-2.11.38-3.17,0.08-.63.26-1.25,0.36-1.88a6.56,6.56,0,0,1,.31-1.91,9.74,9.74,0,0,0,.36-2.42c0.18-1.22.42-2.43,0.67-3.63s0.55-2.37.8-3.53c0.3-1.41.61-2.82,1-4.22s0.94-2.61,1.23-3.91A57.27,57.27,0,0,1,354,71.12,144.79,144.79,0,0,1,360.44,57a59,59,0,0,1,3.42-5.8c0.63-1,1.12-2,1.75-3,1.39-2.1,2.87-4.12,4.36-6.15,0.9-1.22,1.84-2.41,2.68-3.67,0.62-.93,1.5-1.7,2.22-2.59A100.17,100.17,0,0,1,383.36,27a12.59,12.59,0,0,1,2.33-2.3,20.82,20.82,0,0,0,2.44-2.13A64.64,64.64,0,0,1,394,18.3a8.18,8.18,0,0,1,3.94-1.19,2.53,2.53,0,0,1,2.37,1.32,8.34,8.34,0,0,1,.9,2.41,35,35,0,0,1,.31,3.74c-1.13,2-2.54,3.9-3.81,5.84-1.81,2.76-3.83,5.37-5.52,8.22s-3.32,6-4.85,9.09A1.21,1.21,0,0,1,387,48c0,0.43,0,.86,0,1.31L387,49.25l-0.3.26,0.12,0.12a2.07,2.07,0,0,0,.24-0.32,5.12,5.12,0,0,0,1.88-2.07,3.57,3.57,0,0,1,.89-0.92c2.65-2.65,5.28-5.32,8-7.94,0.85-.83,1.83-1.54,2.83-2.38h2.08a15.32,15.32,0,0,1,1.41,2.85,3.63,3.63,0,0,1-.62,3.71,49.28,49.28,0,0,1-4.34,5.56c-0.92,1-1.53,2.39-2.52,3.35-1.25,1.21-1.79,2.88-3,4.1a17.2,17.2,0,0,0-2.12,3.33c-0.69,1.13-1.42,2.23-2.07,3.38a2.6,2.6,0,0,0-.13,1.06l-0.05-.06-0.3.26L389,63.67a2.07,2.07,0,0,0,.24-0.32A35.61,35.61,0,0,0,392.21,60c0.24-.25.38-0.61,0.64-0.84,0.89-.8,1.77-1.63,2.73-2.34a2,2,0,0,1,2.79,0l1.23,2.09v1.88c-0.4.77-.77,1.42-1.09,2.09a47.4,47.4,0,0,1-3.22,5.69c-0.6.91-1.07,1.9-1.59,2.85-1.36,2.46-2.7,4.92-4.07,7.37A15.54,15.54,0,0,0,388,81.88a2.72,2.72,0,0,0,.8-0.21,2,2,0,0,0,.77-0.78c0.44-1.41,1.84-1.81,2.77-2.69a2.08,2.08,0,0,1,1.05-.1A3.58,3.58,0,0,1,394.81,81a7.44,7.44,0,0,1-1.06,4.37c-1.19,2.22-2.48,4.4-3.66,6.62s-2.18,4.25-3.11,6.47c-0.8,1.9-1.45,3.83-2.18,5.75-0.57,1.5-1,3-1.44,4.58a1.29,1.29,0,0,0,.17.46A17.62,17.62,0,0,0,386.3,106c0.9-1.08,1.92-2.07,2.86-3.43l2.27-1.13a3.07,3.07,0,0,1,2.27,2.29,5.48,5.48,0,0,1,.1,3.42c-0.45,1.36-1,2.67-1.58,4-1.26,2.81-2.57,5.59-3.84,8.39-0.52,1.14-1,2.31-1.51,3.64l1.52,0.12,1.23,1.23c1.39-1.51,2.79-2.84,3.95-4.36a19.4,19.4,0,0,1,1.36-1.63c3.17-3.31,6.32-6.65,9.55-9.9a84.45,84.45,0,0,1,6.8-6.37c2-1.6,3.57-3.7,5.9-4.89,0.17-.77,1-0.94,1.44-1.39a48.46,48.46,0,0,1,4.68-3.83c1-.71,1.91-1.57,2.9-2.32,1.18-.89,2.3-1.86,3.49-2.73,1.6-1.17,3.22-2.31,4.87-3.4,2.57-1.7,4.9-3.73,7.63-5.22,2.22-1.22,4.3-2.71,6.45-4.06,0.83-.52,1.71-0.94,2.53-1.46,2.19-1.39,4.53-2.53,6.66-4,0.6-.42,1.36-0.58,2-0.94,3.75-2.08,7.54-4.08,11.43-5.86,3.05-1.39,6.14-2.72,9.19-4.12,3.65-1.68,7.49-2.75,11.24-4.1a23.28,23.28,0,0,1,2.54-.56,6.36,6.36,0,0,1,3.25-.27l1.14,0.68v3.1A4.12,4.12,0,0,1,496.27,59c-3.67,1.65-7.27,3.49-11.1,5.36,1.36,0.32,2.38-.33,3.47-0.42,0.85-.06,1.67-0.44,2.52-0.57a22.83,22.83,0,0,0,3.34-.42c1.85-.6,3.84-0.36,5.65-1.07a0.68,0.68,0,0,1,.18,0,41.15,41.15,0,0,0,5.2-.41c2.05-.41,4.11-0.1,6.13-0.39a18.33,18.33,0,0,1,3.37-.29c0.88,0,1.74.28,2.62,0.34s1.85,0,2.77,0a6.65,6.65,0,0,1,1.48.51,3.36,3.36,0,0,1,.37,1.76,6.85,6.85,0,0,0-.31,2.1,7.68,7.68,0,0,0-.86.75,5.52,5.52,0,0,1-3.26,1.52,75.67,75.67,0,0,0-7.43,1.69c-1.69.54-3.38,1.05-5.06,1.62s-3.05,1.27-4.61,1.81c-2,.68-3.93,1.53-5.87,2.34-1.57.65-3.15,1.31-4.71,2a2.67,2.67,0,0,0-.51.56c3-.46,5.67-1.38,8.42-1.94a74,74,0,0,1,8.34-1.12l1.45,0.85v2a0.28,0.28,0,0,0-.1.1c-0.59,1.79-2,2.49-3.69,3-2.23.69-4.38,1.63-6.58,2.41-2.42.85-4.65,2.19-7.17,2.78-1.24,1-2.79,1.29-4.19,1.93-2.48,1.13-5,2.19-7.5,3.29-1.46.65-3.16,0.95-4.36,2.29a0.93,0.93,0,0,1,0-.18l-0.72.14,0,0.24a1.3,1.3,0,0,0,.7-0.2c1.5,0,2.81-.91,4.29-0.93,0.7-.68,1.68-0.22,2.52-0.63s2-.17,2.94-0.47a7.8,7.8,0,0,1,2.63-.32c0.84,0,1.55-.54,2.44-0.41a19.15,19.15,0,0,0,2.77,0,1.07,1.07,0,0,0,.54,0,1.49,1.49,0,0,1,1.93,0,1.16,1.16,0,0,0,.49,0l0.45,0.89L494.82,94c0,0.06-.24.41-0.41,0.77-0.37.76-.7,1.56-1.77,1.45-1.66,1.23-3.86,1.06-5.56,2.19a31.73,31.73,0,0,0-4.34,1.09c-1.48.32-2.83,0.94-4.29,1.29a75.91,75.91,0,0,0-7.28,2.49c-2.09.73-4.16,1.55-6.21,2.41-2.2.92-4.36,2-6.62,2.75a18.9,18.9,0,0,0-1.83.94l-10.81,5.13c1.15,0.54,2.09-.08,2.95-0.29,1.84-.44,3.7-0.86,5.52-1.39,2.12-.62,4.3-0.91,6.44-1.37a19.62,19.62,0,0,1,5.22-.85,11.3,11.3,0,0,0,1.88-.33,9.64,9.64,0,0,0,1.71-.32,27.84,27.84,0,0,1,2.8-.37,33.61,33.61,0,0,1,5.38-.41c1.68,0,3.31-.55,5-0.42s3.32,0,5,0a3.5,3.5,0,0,1,3,1.43l-0.5,2.82c-1.24,1.79-3.28,2.15-5.14,2.72s-3.78,1-5.65,1.54c-1.32.39-2.69,0.58-4,1.08a12.1,12.1,0,0,1-1.87.39,5,5,0,0,0-2,.49c-0.58.46-1.41-.14-1.8,0.6-2.29.07-4.36,1.13-6.57,1.58a42.67,42.67,0,0,0-4.76,1.4c-2.22.73-4.45,1.45-6.66,2.23-1.72.61-3.4,1.3-5.42,2.07a4.57,4.57,0,0,0,1.09.12,22.16,22.16,0,0,1,5.06-.73c1-.78,2.27-0.22,3.42-0.66a8.74,8.74,0,0,1,3.48-.06c1,0.06,2,.28,3.09.45l1.51,1.07a5.59,5.59,0,0,1-2.24,5,1.69,1.69,0,0,1-.89.5,14.68,14.68,0,0,0-2.25.36c-1.59.24-3.25,0.12-4.82,0.45-1.82.37-3.73,0.25-5.48,1-0.57.26-1.35-.28-1.87,0.4-1.52-.17-2.81.66-4.23,0.94s-2.62.91-3.92,1.2c-2.08.47-4,1.35-6.37,1.71a3.84,3.84,0,0,0,.67.57c0.36,0.15.75,0.25,1.07,0.35,0,2.06,0,2.06-2.27,4.37-0.42.17-.86,0.32-1.26,0.53a5.16,5.16,0,0,1-2.68.68,28.71,28.71,0,0,0-3.14,0c-0.75.05-1.5-.24-2.29,0.3-0.57.4-1.56-.3-2.21,0.42a9.58,9.58,0,0,0-3.24.65,27.22,27.22,0,0,0-7.15,3.41h-1.79a5.28,5.28,0,0,1-1.58-5.09,18.73,18.73,0,0,1,4.08-4.18c1.8-1.42,3.66-2.72,5.56-4,2.55-1.69,5.1-3.38,7.77-4.89,1.91-1.08,3.7-2.38,5.53-3.6a1.05,1.05,0,0,0,.26-0.58,0.93,0.93,0,0,1,0,.18l0.72-.14,0-.24A1.3,1.3,0,0,0,429.18,127.88Zm-19.26-12.46L410,115.5l0.3-.26-0.12-.12a0.59,0.59,0,0,0-.18.37l-0.07-.07-0.3.26,0.12,0.12A0.58,0.58,0,0,0,409.92,115.42Zm2.26-1.81c0.28-.06.71,0.18,0.74-0.37a1,1,0,0,0,.54,0,15.07,15.07,0,0,1,3-2.21c1.57-1.11,3.13-2.24,4.72-3.32q4.1-2.8,8.23-5.55,3.4-2.25,6.84-4.43c2.34-1.47,4.72-2.88,7.07-4.32,1.62-1,3.21-2,4.86-3,1.23-.71,2.63-1.18,3.78-2,2.5-1.77,5.31-3,7.93-4.51,1.86-1.09,3.87-1.93,5.81-2.9s4-2,6-3,3.92-1.83,5.92-2.65a1.82,1.82,0,0,0,1.53-1.21l0,0.32,0.72-.14,0-.24a0.81,0.81,0,0,0-.7.35,8.52,8.52,0,0,0-3.06.64,37.21,37.21,0,0,0-4.18,1.51c-1.33.6-2.79,1-4.18,1.49-2.93,1.12-5.8,2.36-8.64,3.66q-2.41,1.1-4.77,2.3c-2.59,1.33-5.2,2.64-7.73,4.08-1.95,1.11-3.81,2.35-5.79,3.43a47.74,47.74,0,0,0-4.23,2.73c-2,1.36-3.9,2.78-5.85,4.18-1.57,1.13-3.16,2.22-4.68,3.4s-2.8,2.41-4.29,3.5c-2.16,1.59-4.16,3.37-6.19,5.11a8.14,8.14,0,0,1-1.79,1.47,1.16,1.16,0,0,0-.8,1.3c-0.28.06-.71-0.18-0.74,0.37l-0.37.37a1,1,0,0,0-1.13,1.13,1,1,0,0,0,1.13-1.13Zm-31.79-71c-0.55,0-.31.46-0.37,0.74a2.38,2.38,0,0,0-1.69,2.44,2.74,2.74,0,0,0-1,.42c-1.11,1.5-2.27,3-3.24,4.57-1.38,2.26-3.12,4.3-4.09,6.8-1.45,1.61-2.08,3.71-3.21,5.52a45.81,45.81,0,0,0-2.91,6.17c-0.4.94-.91,1.86-1.24,2.81-0.77,2.27-1.75,4.45-2.47,6.74-0.61,2-1.51,3.87-1.93,5.83-0.49,2.32-1.65,4.5-1.57,6.94-0.58.65-.46,1.53-0.71,2.29s-0.13,1.79-.44,2.59-0.08,1.72-.39,2.42-0.08,1.46-.35,2.07a5.61,5.61,0,0,0-.33,2.27,1.07,1.07,0,0,1,0,.54c-0.74.75-.18,1.59-0.25,2.39,0.78-2.14,1.43-4.3,2.11-6.46,0.81-2.56,1.65-5.1,2.49-7.65,0.73-2.22,1.5-4.43,2.21-6.66s1.51-4.42,2.27-6.63c1.19-3.45,2.58-6.82,3.89-10.21,1-2.65,2.13-5.28,3.4-7.83,2.15-4.29,4-8.73,6.75-12.73a7.16,7.16,0,0,0,.8-2.07h0.55c0.19-.35.35-0.72,0.56-1.05s0.51-.64.72-1a1.22,1.22,0,0,0,0-.54c0.55,0,.31-0.46.33-0.77l0.07,0.07,0.3-.26-0.12-.12A1.06,1.06,0,0,0,380.39,42.63Zm-12.71,70a100.82,100.82,0,0,1,5.77-15.94l-0.56-.14a65.84,65.84,0,0,0-7.31,13.56C366.83,110.46,367.15,111.5,367.68,112.66ZM482,73.43c-0.75-.16-1.42-0.31-1.88.65C480.9,74,481.57,74.28,482,73.43Zm6.71,4.39,0,0.32,0.6-.14,0-.18h-0.61ZM482.48,73l0,0.32,0.62-.13,0-.18h-0.61Zm1.11-.37,0,0.32,0.62-.13,0-.18h-0.61ZM383,109.67v0.12h0.37v-0.12H383Zm-9.24-13.55V96h-0.37v0.12h0.37Zm0.25-1h-0.12V95.5H374V95.13Zm14.17-12.69V82.31h-0.37v0.12h0.37Z"/><path class="b" d="M201.84,60.41h29.94v1.84q0,46,0,92c0,1.93.65,3.81,0.38,5.76,0.73,1.07.19,2.33,0.52,3.48s0.36,2.21.65,3.26a52.49,52.49,0,0,0,1.94,6.39,23.44,23.44,0,0,0,2.85,5.09,13.12,13.12,0,0,0,3,3.06c0.7,0.48,1.32,1.29,2,1.74,1.64,1,3.45,1.78,5.15,2.7,1.17,0.63,2.55.68,3.67,1.41,1.95,0.11,3.79.89,5.79,0.77s4.31,0,6.47,0a31.51,31.51,0,0,0,4.33-.65c2.91-.37,5.33-1.72,7.81-3.06a6.2,6.2,0,0,0,1.74-1.09,7.67,7.67,0,0,0,1.41-1.21,5.19,5.19,0,0,1,1.19-1,18.58,18.58,0,0,0,4.32-6.34,32.52,32.52,0,0,0,2.22-6.84c0.34-1.55.55-3.11,0.79-4.68,0.19-1.25.06-2.54,0.36-3.72,0.57-2.24.3-4.47,0.3-6.7q0-45.18,0-90.37V60.43h25.88V62q0,46.94,0,93.88c0,1.06-.28,2.11-0.34,3.17a17.18,17.18,0,0,1-.07,3.13,18,18,0,0,0-.33,3c-0.09,1-.27,2-0.42,3a30,30,0,0,1-.7,3.95c-0.37,1.26-.68,2.55-1,3.81a30.74,30.74,0,0,1-3.39,8.58,25.77,25.77,0,0,1-4.23,6c-0.84.86-1.56,1.82-2.37,2.71a39.91,39.91,0,0,1-7.78,6.13c-1.19.79-2.49,1.4-3.76,2.08-3.58,1.91-5.3,2.46-10.41,3.89-1.63.46-3.26,0.76-4.91,1.1-2,.42-4.13.46-6.15,0.8a56.42,56.42,0,0,1-7.62.27c-2.58.08-5.17,0-7.76,0a20.67,20.67,0,0,0-2.44-.39,3.13,3.13,0,0,1-2.43-.34c-1.16.25-2.23-.32-3.36-0.37s-2-.53-3.06-0.62c-1.82-.16-3.46-0.93-5.23-1.27a18.5,18.5,0,0,1-3.9-1.27c-2.35-1-4.71-2-7-3.28a61,61,0,0,1-5.56-3.57,49.09,49.09,0,0,1-6.55-5.92,30.52,30.52,0,0,1-4.6-6.19,40,40,0,0,1-2-3.78,47.2,47.2,0,0,1-2.46-6.93c-0.54-2-.83-4.06-1.38-6.07-0.34-1.24-.14-2.63-0.45-3.89-0.35-1.43-.07-2.91-0.39-4.28-0.49-2.06-.17-4.1-0.31-6.14-0.71-10.23-.28-20.47-0.35-30.71s0-20.7,0-31v-31Z"/><path class="b" d="M50.27,60.39H81.65c0.12,0.29.28,0.65,0.42,1,0.62,1.65,1.23,3.31,1.85,5,0.68,1.81,1.39,3.61,2,5.45,0.69,2,1.42,4,2.22,5.92,1.24,3,2.28,6.08,3.43,9.11,1.09,2.87,2,5.82,3.11,8.7,0.89,2.39,1.8,4.79,2.77,7.16,0.66,1.62,1.21,3.32,1.79,5,0.82,2.37,1.71,4.71,2.61,7.05,1,2.66,2.13,5.3,3,8,1,2.92,2,5.83,3.13,8.69s2.12,5.54,3.15,8.3,2.12,5.79,3.13,8.69c0.84,2.4,1.83,4.79,2.76,7.17,0.72,1.84,1.37,3.75,2,5.65,0.8,2.43,1.86,4.77,2.78,7.16,0.33,0.85.58,1.73,0.88,2.59a2.59,2.59,0,0,0,.42.51c0.51-1.27,1-2.39,1.41-3.54,0.94-2.63,1.74-5.31,2.87-7.87a31.75,31.75,0,0,0,1.2-3.57c0.3-1,.79-1.9,1.08-2.88a25.73,25.73,0,0,1,1-2.74c0.44-1,.64-2.2,1.08-3.25,1-2.37,1.86-4.79,2.66-7.21,0.89-2.71,2.19-5.29,2.71-8.13,1.15-1.93,1.59-4.14,2.43-6.2,0.92-2.27,1.48-4.68,2.41-7,1.14-2.8,2.1-5.66,3.09-8.51,1.3-3.71,2.61-7.43,4-11.11,1.3-3.52,2.3-7.17,4-10.54,0.51-2.78,1.74-5.33,2.66-8,0.87-2.46,1.71-5,2.69-7.38,0.92-2.27,1.49-4.68,2.45-6.93,0.87-2.06,1.38-4.23,2.3-6.3h21.24c-1.24,3.91-3,7.61-4,11.57-1,1.57-1.17,3.47-1.9,5.13s-1.09,3.51-1.86,5.14-1.07,3.13-1.75,4.64S174,90,173.35,91.43c-1.31,3.16-2.37,6.41-3.51,9.64s-2.47,6.62-3.55,10c-0.57,1.78-1.17,3.58-1.87,5.32s-1.1,3.51-1.84,5.15-1.11,3.11-1.75,4.64-0.85,3.11-1.54,4.53c-1.16,2.37-1.74,4.94-2.75,7.37-0.94,2.26-1.45,4.7-2.44,6.94s-1.36,4.35-2.4,6.4a24,24,0,0,0-1.2,3.38c-0.4,1.19-.68,2.43-1.18,3.58s-0.59,2.47-1.43,3.47c-0.57,2.64-1.81,5-2.61,7.61a27.31,27.31,0,0,1-1.14,3.41c-0.51,1.09-.75,2.26-1.31,3.34a24.51,24.51,0,0,0-1.09,3.24c-0.81,2.31-1.67,4.61-2.47,6.92-1,2.75-1.94,5.49-2.92,8.22s-2,5.7-3.09,8.51a9.47,9.47,0,0,0-.28,1H103.24c-1-2.74-2.17-5.48-3.07-8.3A34.67,34.67,0,0,0,99,192.45c-1-2.2-1.67-4.48-2.53-6.72s-1.73-4.7-2.67-7c-0.75-1.85-1.41-3.73-2.08-5.61-0.4-1.13-.64-2.32-1.14-3.41-1-2.29-1.66-4.74-2.63-7-0.86-2.05-1.57-4.16-2.36-6.23-1.35-3.57-2.54-7.21-3.94-10.75-1.47-3.7-2.51-7.58-4.33-11.14a38.26,38.26,0,0,0-2-5.85c-0.71-2.09-1.61-4.14-2.34-6.23-1.25-3.61-2.89-7.08-3.87-10.78-1.29-2.24-1.61-4.88-2.94-7.1-0.23-2-1.3-3.78-1.92-5.68s-1.39-3.5-2-5.27c-1-3-2.18-5.88-3.22-8.84-0.84-2.4-1.79-4.8-2.76-7.17-0.73-1.78-1.32-3.64-2-5.46-0.44-1.23-.9-2.46-1.35-3.69-0.9-2.46-1.81-4.92-2.71-7.38A2.52,2.52,0,0,1,50.27,60.39Z"/><path class="a" d="M416.49,168.13c0.24,0.94.42,1.66,0.66,2.37a25,25,0,0,1,1,3.85c0.15,0.88.19,1.78,0.39,2.61s0.12,1.67.35,2.44c0.32,1.06.42,2.16,0.7,3.22a3.5,3.5,0,0,0,2.56,2.65c1,0.23,1.86.61,2.86,0.85a5.68,5.68,0,0,0,.22.6,1.27,1.27,0,0,0,.27.28c0,0.42,0,.85,0,1.27a16.19,16.19,0,0,1-1.3,6.67,62.78,62.78,0,0,1-2.75,6.62c-0.47.91-.78,1.89-1.19,2.92h-8.33l-1.18-1.24a18.26,18.26,0,0,1-.39-1.85,16.39,16.39,0,0,1,0-1.82l0.55-.55a5.68,5.68,0,0,1,3.42.67,7.57,7.57,0,0,0,2.72.55,9.3,9.3,0,0,0,3.3-8.07c-1-1.1-2.39-1.26-3.63-1.63a12.57,12.57,0,0,1-7.8-6.66,29.42,29.42,0,0,1-2.62-5.75,1.09,1.09,0,0,0-.38-0.26c-1.39,1-1.15,2.72-1.38,4.08a7,7,0,0,0,.38,4.63c0.26,0.55,1,.82,1.09,1.63a2.79,2.79,0,0,1,2.16,2l-1.33,2.9a7.63,7.63,0,0,1-1.55,2.33c-0.78.78-1.17,1.86-1.91,2.73a43,43,0,0,0-2.94,4.31c-0.44.68-.84,1.38-1.26,2.06h-8.62a5.84,5.84,0,0,1-1.58-5l0.5-.48c1.15,0,2.37-.23,3.35.72,0.53-.18.88,0.3,1.33,0.35a17.26,17.26,0,0,0,2,0,10,10,0,0,0,4.43-5.56,3.38,3.38,0,0,0,.14-1.76c-0.13-.44-0.08-1.25-0.93-1.24-0.22-.89-1-1.3-1.57-1.94s-1.08-1.26-1.56-1.94a13.8,13.8,0,0,1-1.79-3.88,31.35,31.35,0,0,1-1.2-5.63c-0.15-1.25-.24-2.49-0.29-3.76a0.92,0.92,0,0,0-1.26.14,56.41,56.41,0,0,1-9.33,5.57,28.37,28.37,0,0,1-3.45,1.22c-0.07,1.54.79,2.73,1.32,4.05,0.59,1.48,2.23,1.77,3.12,3.21a18.74,18.74,0,0,1,.33,2.9,9.68,9.68,0,0,1-.24,3.58c-0.4,1-.19,2.2-0.4,3.33a19.13,19.13,0,0,1-2.33,6.09h-8.32l-1.7-2.9,0.37-2.47c1.71-.52,3,0.36,4.4.74a3,3,0,0,0,2.38,0,3.28,3.28,0,0,0,1.25-.93,4.44,4.44,0,0,0,.52-1.81,22.36,22.36,0,0,0,0-2.37,9,9,0,0,0-4.38-2.74,10.85,10.85,0,0,1-1.76-1.22,21.57,21.57,0,0,1-2-2.5c-1.11-1.6-2.17-3.24-3.25-4.88a12.61,12.61,0,0,0-3,5.54c-0.88,4.05-2.95,7.54-4.7,11.19-0.67,1.38-1.2,2.83-1.84,4.34h-9.29c-1.41-1.36-1.3-3.16-1.21-5l0.39-.39c1-.56,2,0,2.71.32a8,8,0,0,0,3.75.63l1.75-1.33a11.51,11.51,0,0,0,.6-1.59,21.65,21.65,0,0,0,.77-4.68c-0.06-2.46-.12-4.93,0-7.39,0.14-2.68-.41-5.31-0.42-8a11.74,11.74,0,0,0-.48-2.29c1.51-.49,2-2.11,3.43-2.6,0.54-1.44,1.92-2.06,3-3s2.17-1.91,3.25-2.87l3.24-2.88,3.3-2.94c1.47,0,3,0,4.53,0a23.41,23.41,0,0,0,4.34-.65c1.78-.31,3.51-0.76,5.25-1.21,2-.52,4-1.07,6-1.61a18.18,18.18,0,0,1,2-.59,36,36,0,0,1,8.38-.76c0.81,0.06,5.57,1.09,6.19,1.55,1.46,1.09,3.15,1.87,4.39,3.25,0.86,1,1.92,1.7,2.74,2.7s1.81,1.85,2.72,2.76,2,1.88,2.86,2.88a21.78,21.78,0,0,0,5.08,3.82,9.53,9.53,0,0,0,3.22,1.11,16.91,16.91,0,0,0,2.42.47,15.06,15.06,0,0,0,4.29-.87,2.84,2.84,0,0,0,1.15-.77c1.29-1.23,2.65-2.41,3.15-4.23a0.58,0.58,0,0,1,.21-0.22,26.85,26.85,0,0,0,.41-3.21,8.34,8.34,0,0,0-1.51-4.53,6.57,6.57,0,0,0-2.67-2.33,8.24,8.24,0,0,0-3.14-.92,17.71,17.71,0,0,1-2.47-.41,8,8,0,0,1-5.12,4.49,7.46,7.46,0,0,1-6.8-2.68,8.64,8.64,0,0,1-1.75-6.64,2.59,2.59,0,0,1,.61.32,25.68,25.68,0,0,1,2,2,5.83,5.83,0,0,0,3.67,1.87,16.76,16.76,0,0,1,1.64.48l0.11-1.58a5.43,5.43,0,0,1-2.86-.75,7.5,7.5,0,0,1-2.47-1.85,9.28,9.28,0,0,1,3.66-2.22,3.74,3.74,0,0,1,1.5-.34,13.36,13.36,0,0,1,1.85.43,5.82,5.82,0,0,1,1.91,1.15,2.27,2.27,0,0,1,.87,1.11,6.9,6.9,0,0,0,1.13,1.71c1,0,1.84-.06,2.69,0a13.52,13.52,0,0,1,5.06,1.61,9.42,9.42,0,0,1,4.37,5.2c0.71,0.37.32,1.11,0.47,1.65a12.54,12.54,0,0,1,.08,5.55,11,11,0,0,1-1,3.11,10.34,10.34,0,0,1-3.24,3.94,12.84,12.84,0,0,1-7.4,2.25,15.47,15.47,0,0,1-5.76-.86,30.71,30.71,0,0,1-5.9-3.17,26.35,26.35,0,0,1-4.52-3.81,17.63,17.63,0,0,0-1.75-1.62c0.12,0.2.15,0.18,0.17,0.15l-0.26-.3-0.12.12C416.38,168.19,416.48,168.27,416.49,168.13Z"/><path class="a" d="M375.35,125.49A1.48,1.48,0,0,1,377,126v1.63l-1.6.08C374.65,126.66,374.64,126.47,375.35,125.49Z"/><path class="c" d="M412.92,113.24a1.16,1.16,0,0,1,.8-1.3,8.14,8.14,0,0,0,1.79-1.47c2-1.74,4-3.52,6.19-5.11,1.48-1.09,2.83-2.37,4.29-3.5s3.12-2.28,4.68-3.4c1.94-1.4,3.88-2.81,5.85-4.18a47.74,47.74,0,0,1,4.23-2.73c2-1.08,3.84-2.32,5.79-3.43,2.53-1.44,5.14-2.75,7.73-4.08q2.36-1.21,4.77-2.3c2.85-1.3,5.71-2.55,8.64-3.66,1.39-.53,2.85-0.89,4.18-1.49A37.21,37.21,0,0,1,476,75.07a8.52,8.52,0,0,1,3.06-.64,2.13,2.13,0,0,1-1.54.93c-2,.83-4,1.7-5.92,2.65s-4,2-6,3-3.95,1.81-5.81,2.9c-2.62,1.54-5.43,2.74-7.93,4.51-1.15.82-2.55,1.28-3.78,2-1.65,1-3.24,2-4.86,3-2.36,1.44-4.73,2.85-7.07,4.32s-4.58,2.93-6.84,4.43q-4.13,2.74-8.23,5.55c-1.59,1.08-3.15,2.21-4.72,3.32a15.07,15.07,0,0,0-3,2.21A1,1,0,0,1,412.92,113.24Z"/><path class="c" d="M378.33,45.81a13.42,13.42,0,0,1-1,2.21c-2.72,4-4.6,8.43-6.75,12.73-1.27,2.54-2.37,5.17-3.4,7.83-1.31,3.4-2.7,6.77-3.89,10.21-0.76,2.21-1.56,4.4-2.27,6.63s-1.48,4.44-2.21,6.66c-0.84,2.55-1.68,5.09-2.49,7.65-0.68,2.15-1.33,4.32-2.11,6.46,0.07-.8-0.5-1.64.25-2.39a1.07,1.07,0,0,0,0-.54,5.61,5.61,0,0,1,.33-2.27c0.26-.61,0-1.35.35-2.07s0.07-1.6.39-2.42,0.18-1.77.44-2.59,0.13-1.64.71-2.29c-0.07-2.44,1.08-4.62,1.57-6.94,0.42-2,1.32-3.88,1.93-5.83,0.71-2.29,1.69-4.48,2.47-6.74,0.32-.95.83-1.87,1.24-2.81a45.81,45.81,0,0,1,2.91-6.17c1.12-1.81,1.75-3.91,3.21-5.52,1-2.5,2.71-4.54,4.09-6.8,1-1.59,2.13-3.07,3.24-4.57A2.74,2.74,0,0,1,378.33,45.81Z"/><path class="c" d="M367.68,112.66c-0.52-1.16-.85-2.2-2.1-2.51a65.84,65.84,0,0,1,7.31-13.56l0.56,0.14A100.82,100.82,0,0,0,367.68,112.66Z"/><path class="c" d="M378.17,46A2.75,2.75,0,0,1,380,43.37a1.22,1.22,0,0,1,0,.54c-0.21.35-.5,0.65-0.72,1s-0.38.7-.56,1.05h-0.55Z"/><path class="c" d="M482,73.43c-0.48.86-1.15,0.57-1.88,0.65C480.63,73.11,481.3,73.26,482,73.43Z"/><path class="c" d="M411.81,114a1,1,0,0,1-1.13,1.13A1,1,0,0,1,411.81,114Z"/><path class="c" d="M380.39,42.63c-0.06.28,0.18,0.71-.37,0.74C380.07,43.09,379.84,42.67,380.39,42.63Z"/><path class="c" d="M412.92,113.24c0,0.55-.46.31-0.74,0.37C412.21,113.06,412.64,113.3,412.92,113.24Z"/><path class="c" d="M429.18,127.74l0.71-.06,0,0.24-0.72.14Z"/><path class="c" d="M474.29,93.57l-0.71.06,0-.24,0.72-.14Z"/><path class="c" d="M488.76,77.82h0.61l0,0.18-0.6.14Z"/><path class="c" d="M479.08,74.14l0.71-.06,0,0.24-0.72.14Z"/><path class="c" d="M482.48,73h0.61l0,0.18-0.62.13Z"/><path class="c" d="M483.59,72.64h0.61l0,0.18-0.62.13Z"/><path class="c" d="M380.35,42.6l0.26-.3,0.12,0.12-0.3.26Z"/><path class="c" d="M409.92,115.42l0.26-.3,0.12,0.12-0.3.26Z"/><path class="c" d="M410,115.49l-0.26.3-0.12-.12,0.3-.26Z"/><path class="c" d="M411.81,114l0.37-.37Z"/><path class="c" d="M383,109.67h0.37v0.12H383v-0.12Z"/><path class="c" d="M360.76,127l-0.3-.26,0.12-.12,0.26,0.3Z"/><path class="c" d="M373.73,96.11h-0.37V96h0.37v0.12Z"/><path class="c" d="M374,95.13V95.5h-0.12V95.13H374Z"/><path class="c" d="M388.15,82.43h-0.37V82.31h0.37v0.12Z"/><path class="c" d="M389.3,63.37l-0.26.3-0.12-.12,0.3-.26Z"/><path class="c" d="M387.08,49.32l-0.26.3-0.12-.12,0.3-.26Z"/><path class="c" d="M416.58,168.36l-0.3-.26,0.12-.12,0.26,0.3Z"/><path class="d" d="M550.33,94L539.1,63.65h6.74l8.71,23.48L563,63.65h4.53L556.64,94h-6.31Z"/><path class="d" d="M571.35,94V63.65h11.36a12.73,12.73,0,0,1,5.31.87,6.61,6.61,0,0,1,2.88,2.65,7.69,7.69,0,0,1,1.06,4,9.09,9.09,0,0,1-1.54,5,9.77,9.77,0,0,1-4.35,3.62L596,94h-7.69l-7.55-12.41h-3.47V94h-5.95Zm5.95-16.57h1.45q3.91,0,5.4-1.7a5.69,5.69,0,0,0,1.49-3.86,3.79,3.79,0,0,0-1.21-3q-1.21-1.1-4.93-1.1h-2.2v9.62Z"/><path class="d" d="M599.95,94V63.65h6.32V94h-6.32Z"/><path class="d" d="M608.31,99.33l-0.06-4.51a13.89,13.89,0,0,0,5.1,1,4.41,4.41,0,0,0,2-.41A3.05,3.05,0,0,0,616.64,94a9.29,9.29,0,0,0,.5-3.81V63.65h6.32v25.9a14.73,14.73,0,0,1-1,6.21,7.3,7.3,0,0,1-3.09,3.13,11.55,11.55,0,0,1-5.62,1.18A21.93,21.93,0,0,1,608.31,99.33Z"/><path class="d" d="M630.69,94V63.65h19.44v4.18H637v8.45h10.85v4.18H637v9.23H651.1V94h-20.4Z"/><path class="d" d="M542.13,118.65h6.32v18.62q0,5,1.71,6.69a6.14,6.14,0,0,0,4.44,1.64,5.71,5.71,0,0,0,4.28-1.62q1.59-1.62,1.59-6.26V118.65H566v18.64q0,5.27-1.32,7.56a9.29,9.29,0,0,1-3.83,3.6,13.57,13.57,0,0,1-6.34,1.31,15.7,15.7,0,0,1-6.48-1.22,9.84,9.84,0,0,1-4.29-3.63q-1.58-2.41-1.58-7.68V118.65Z"/><path class="d" d="M572.46,149V118.65H578l14,20.73V118.65h5.07V149h-5.67l-13.94-20.73V149h-5.07Z"/><path class="d" d="M603.9,149V118.65h6.32V149H603.9Z"/><path class="d" d="M624.94,149l-11.23-30.35h6.74l8.71,23.48,8.44-23.48h4.53L631.25,149h-6.31Z"/><path class="d" d="M645.5,149V118.65h19.44v4.18H651.81v8.45h10.85v4.18H651.81v9.23H665.9V149H645.5Z"/><path class="d" d="M669.88,149V118.65h11.36a12.73,12.73,0,0,1,5.31.87,6.6,6.6,0,0,1,2.88,2.65,7.68,7.68,0,0,1,1.06,4,9.08,9.08,0,0,1-1.54,5,9.77,9.77,0,0,1-4.35,3.62L694.54,149h-7.69l-7.55-12.41h-3.47V149h-5.95Zm5.95-16.57h1.45q3.91,0,5.4-1.7a5.69,5.69,0,0,0,1.49-3.86,3.8,3.8,0,0,0-1.21-3q-1.21-1.1-4.93-1.1h-2.2v9.62Z"/><path class="d" d="M696.32,148.73v-5.21a26.79,26.79,0,0,0,5.31,1.78,20,20,0,0,0,3.23.29,5.74,5.74,0,0,0,4-1.19,3.73,3.73,0,0,0,1.31-2.85,3.86,3.86,0,0,0-.73-2.3,12.27,12.27,0,0,0-3.59-2.61l-2-1.13a19.23,19.23,0,0,1-5.94-4.52,8,8,0,0,1,1-10.67q2.62-2.44,7.53-2.44a37.66,37.66,0,0,1,8.27,1v4.86a23,23,0,0,0-7.48-1.74,5.33,5.33,0,0,0-3.49,1,3,3,0,0,0-1.2,2.39,3.14,3.14,0,0,0,.73,2,13.18,13.18,0,0,0,3.57,2.52l2.19,1.21q5,2.81,6.42,4.88a8.64,8.64,0,0,1-1.48,11.07q-2.84,2.64-9.05,2.64A42.39,42.39,0,0,1,696.32,148.73Z"/><path class="d" d="M721.17,149V118.65h6.32V149h-6.32Z"/><path class="d" d="M741.8,149V122.83H730.93v-4.18H759v4.18H748.12V149H741.8Z"/><path class="d" d="M762.39,149V118.65h19.44v4.18H768.71v8.45h10.85v4.18H768.71v9.23H782.8V149h-20.4Z"/><path class="d" d="M786.78,149V118.65h6.32V149h-6.32Z"/><path class="d" d="M807.41,149V122.83H796.54v-4.18H824.6v4.18H813.73V149h-6.32Z"/><path class="d" d="M539.06,204l11.82-30.35h6.33L569,204h-6.49l-3.15-8.1H546.81l-3.16,8.1h-4.6Zm9.33-12.14h9.42l-4.71-12.1Z"/><path class="d" d="M572,204V173.65h8.35L587.64,195l7.54-21.35h7.34V204h-5.82V181.09L589.28,202H584.2l-7.27-21.18V204h-5Z"/><path class="d" d="M607,203.73v-5.21a26.77,26.77,0,0,0,5.31,1.78,19.94,19.94,0,0,0,3.23.29,5.74,5.74,0,0,0,4-1.19,3.73,3.73,0,0,0,1.31-2.85,3.86,3.86,0,0,0-.73-2.3,12.26,12.26,0,0,0-3.59-2.61l-2-1.13a19.22,19.22,0,0,1-5.94-4.52,8,8,0,0,1,1-10.67q2.62-2.44,7.53-2.44a37.66,37.66,0,0,1,8.27,1v4.86a23.07,23.07,0,0,0-7.47-1.74,5.33,5.33,0,0,0-3.49,1,3,3,0,0,0-1.2,2.39,3.15,3.15,0,0,0,.73,2,13.13,13.13,0,0,0,3.57,2.52l2.19,1.21q5,2.81,6.42,4.88a8.63,8.63,0,0,1-1.48,11.07q-2.84,2.64-9.05,2.64A42.38,42.38,0,0,1,607,203.73Z"/><path class="d" d="M638.94,204V177.83H628.07v-4.18h28.05v4.18H645.25V204h-6.32Z"/><path class="d" d="M659,204V173.65h19.44v4.18H665.34v8.45h10.85v4.18H665.34v9.23h14.09V204H659Z"/><path class="d" d="M682.9,204V173.65h11.36a12.75,12.75,0,0,1,5.31.87,6.61,6.61,0,0,1,2.88,2.65,7.68,7.68,0,0,1,1.06,4,9.08,9.08,0,0,1-1.54,5,9.77,9.77,0,0,1-4.35,3.62L707.57,204h-7.69l-7.55-12.41h-3.47V204H682.9Zm5.95-16.57h1.45q3.91,0,5.4-1.7a5.69,5.69,0,0,0,1.49-3.86,3.8,3.8,0,0,0-1.21-3q-1.21-1.1-4.93-1.1h-2.2v9.62Z"/><path class="d" d="M710.54,204V173.65H723.6q5.25,0,8.17,1.68a12,12,0,0,1,4.66,5,16.7,16.7,0,0,1,1.73,7.91,19.09,19.09,0,0,1-1.65,8.1,13.24,13.24,0,0,1-4.81,5.64Q728.54,204,723,204H710.54Zm6.32-4.31h4.72a11.3,11.3,0,0,0,5.65-1.15,7.73,7.73,0,0,0,3.1-3.89,15.76,15.76,0,0,0,1.14-6.1,13.86,13.86,0,0,0-1.11-5.7,8.48,8.48,0,0,0-3.07-3.76q-2-1.28-6.61-1.28h-3.81v21.88Z"/><path class="d" d="M739.18,204L751,173.65h6.33L769.14,204h-6.49l-3.15-8.1H746.93l-3.15,8.1h-4.6Zm9.33-12.14h9.42l-4.71-12.1Z"/><path class="d" d="M772.08,204V173.65h8.35L787.76,195l7.54-21.35h7.34V204h-5.82V181.09L789.39,202h-5.08L777,180.79V204h-5Z"/></svg>